<svg xmlns="http://www.w3.org/2000/svg" viewBox="0 0 1200 675">
  <defs>
    <linearGradient id="g" x1="0" x2="1"><stop stop-color="#05111f"/><stop offset="1" stop-color="#123a5f"/></linearGradient>
    <linearGradient id="photo" x1="0" y1="0" x2="1" y2="1"><stop stop-color="#e8f2fb"/><stop offset=".55" stop-color="#ffffff"/><stop offset="1" stop-color="#bfd4e5"/></linearGradient>
  </defs>
  <rect width="1200" height="675" fill="url(#g)"/>
  <rect x="66" y="56" width="1068" height="563" rx="26" fill="#fff"/>
  <rect x="66" y="56" width="1068" height="86" rx="26" fill="#07192b"/>
  <text x="110" y="112" font-family="Arial" font-size="30" font-weight="800" fill="#fff">STRATEGEON</text>
  <rect x="820" y="88" width="116" height="26" rx="13" fill="#1688ff"/>
  <rect x="106" y="190" width="468" height="305" rx="18" fill="url(#photo)"/>
  <rect x="626" y="188" width="380" height="28" rx="14" fill="#07192b"/>
  <rect x="626" y="248" width="310" height="18" rx="9" fill="#bacddd"/>
  <rect x="626" y="284" width="350" height="18" rx="9" fill="#bacddd"/>
  <rect x="626" y="338" width="170" height="52" rx="9" fill="#1688ff"/>
  <rect x="824" y="338" width="144" height="52" rx="9" fill="#edf5fb"/>
  <path d="M202 410l106-156 84 118 56-72 76 110z" fill="#1688ff" opacity=".85"/>
  <circle cx="455" cy="244" r="44" fill="#ffc857"/>
</svg>
