<svg xmlns="http://www.w3.org/2000/svg" viewBox="0 0 1200 675">
  <rect width="1200" height="675" fill="#eef6ff"/>
  <rect x="72" y="54" width="1056" height="568" rx="24" fill="#fff" stroke="#c8d9e8"/>
  <rect x="114" y="96" width="972" height="64" rx="14" fill="#07192b"/>
  <circle cx="152" cy="128" r="10" fill="#1688ff"/><circle cx="184" cy="128" r="10" fill="#35b8ff"/>
  <rect x="124" y="198" width="720" height="360" rx="18" fill="#f9fcff" stroke="#c9dcec" stroke-width="3"/>
  <path d="M202 440c110-220 220 80 310-90 82-156 162 106 260-70" fill="none" stroke="#1688ff" stroke-width="20" stroke-linecap="round"/>
  <rect x="886" y="198" width="166" height="42" rx="10" fill="#1688ff"/>
  <rect x="886" y="272" width="166" height="18" rx="9" fill="#9db8cb"/>
  <rect x="886" y="320" width="128" height="18" rx="9" fill="#9db8cb"/>
  <rect x="164" y="518" width="82" height="34" rx="8" fill="#07192b"/><rect x="264" y="518" width="82" height="34" rx="8" fill="#35b8ff"/>
</svg>
